<svg xmlns="http://www.w3.org/2000/svg" width="48.7" height="96.2" viewBox="0 0 48.7 96.2"><path fill="#b4fff4" d="M44.4 71.3l-7.1-11.7A54.3 54.3 0 0 0 39.6 45v-1.9C38.9 30 33.8 25.3 30 21.5a18 18 0 0 1-4.1-5.5l1.6-.5a2.6 2.6 0 0 0 1-2l-.2-.5a4.5 4.5 0 0 0-2.7-.5 7.8 7.8 0 0 1 .1-2.6c0-.4 0-.4.7-.5h.1a1.2 1.2 0 0 0 .8-.5 1.7 1.7 0 0 0-.3-1.5h-.1V7a17 17 0 0 1-1.5-5.2C25.3.5 25 .2 24.8.1h-.7c-.1.1-.5.3-.5 1.7s-.3 2.1-1.6 5.3v.2a1.5 1.5 0 0 0-.4 1c0 .1.1.3.1.4a1 1 0 0 0 .8.5h.1c.7.1.7.1.7.5a9.2 9.2 0 0 1 .1 1.6v1a4.5 4.5 0 0 0-2.7.5l-.2.5a2.3 2.3 0 0 0 1 2l1.6.5a17.9 17.9 0 0 1-4.4 5.6c-3.8 4-8.9 8.6-9.6 21.7V45a54.3 54.3 0 0 0 2.3 14.6L4.3 71.3 0 96.2h4.9l4.5-15.8L17 74h.3l.8.3c.2.8.3 1.6.4 2.1s.3 1.4 3.8 1.6v18.2h4V78.1c3.8-.2 4-1.2 4.1-1.6s.2-1.3.3-2.1l.9-.3h.1l7.6 6.4 4.5 15.8h4.9z"/></svg>